# xmcd
#
# Track frame offsets:
#	150
#	15273
#	28096
#	42040
#	58159
#	73254
#	81649
#	95874
#	109367
#	119878
#	137049
#	149859
#
# Disc length: 2178 seconds
#
# Revision: 1
# Processed by: cddbd v1.5.2PL0 Copyright (c) Steve Scherf et al.
# Submitted via: audiograbber 1.83.01
#
DISCID=c208800c
DTITLE=Mantovani - Los Que Triunfaron 2
DYEAR=1900
DGENRE=Easy Listening
TTITLE0=Adios
TTITLE1=Amapola
TTITLE2=Arrivederci Roma
TTITLE3=Las Hojas Muertas
TTITLE4=Cielito Lindo
TTITLE5=Celos
TTITLE6=Creemos En El Amor
TTITLE7=El Golpe
TTITLE8=Hello Dolly
TTITLE9=La Mer
TTITLE10=La Paloma
TTITLE11=La Vie En Rose
EXTD=
EXTT0=
EXTT1=
EXTT2=
EXTT3=
EXTT4=
EXTT5=
EXTT6=
EXTT7=
EXTT8=
EXTT9=
EXTT10=
EXTT11=
PLAYORDER=
